<?xml version="1.0" encoding="utf-8"?>
<!-- Generator: Adobe Illustrator 15.0.2, SVG Export Plug-In . SVG Version: 6.00 Build 0)  -->
<!DOCTYPE svg PUBLIC "-//W3C//DTD SVG 1.1//EN" "http://www.w3.org/Graphics/SVG/1.1/DTD/svg11.dtd">
<svg version="1.1" id="Layer_1" xmlns="http://www.w3.org/2000/svg" xmlns:xlink="http://www.w3.org/1999/xlink" x="0px" y="0px"
	 width="242.751px" height="242.752px" viewBox="184.625 324.667 242.751 242.752"
	 enable-background="new 184.625 324.667 242.751 242.752" xml:space="preserve">
<path fill="#36609F" d="M389.445,324.667h-166.89c-20.942,0-37.93,16.994-37.93,37.93v166.892c0,20.95,16.987,37.93,37.93,37.93
	h166.891c20.95,0,37.93-16.979,37.93-37.93V362.597C427.375,341.661,410.396,324.667,389.445,324.667z"/>
<path fill="#FFFFFF" d="M331.996,446.087h-17.01c0,27.188,0,60.645,0,60.645h-25.203c0,0,0-33.131,0-60.645h-11.986v-21.425h11.986
	v-13.868c0-9.912,4.712-25.439,25.433-25.439l18.669,0.074v20.802c0,0-11.351,0-13.55,0c-2.209,0-5.35,1.11-5.35,5.838v12.594
	h19.218L331.996,446.087z"/>
</svg>
