<?xml version="1.0" encoding="utf-8"?>
<!-- Generator: Adobe Illustrator 15.0.2, SVG Export Plug-In . SVG Version: 6.00 Build 0)  -->
<!DOCTYPE svg PUBLIC "-//W3C//DTD SVG 1.1//EN" "http://www.w3.org/Graphics/SVG/1.1/DTD/svg11.dtd">
<svg version="1.1" id="Layer_1" xmlns="http://www.w3.org/2000/svg" xmlns:xlink="http://www.w3.org/1999/xlink" x="0px" y="0px"
	 width="208.666px" height="208.666px" viewBox="245.292 341.965 208.666 208.666"
	 enable-background="new 245.292 341.965 208.666 208.666" xml:space="preserve">
<path fill="#2CAAE1" d="M421.354,341.965H277.896c-18.008,0-32.604,14.608-32.604,32.604v143.458
	c0,18.01,14.596,32.604,32.604,32.604h143.458c18.011,0,32.604-14.595,32.604-32.604V374.569
	C453.958,356.574,439.363,341.965,421.354,341.965z"/>
<path fill="#FFFFFF" d="M391.112,425.022c0.044,0.917,0.063,1.834,0.063,2.764c0,28.287-21.528,60.904-60.901,60.904
	c-12.095,0-23.341-3.541-32.815-9.616c1.681,0.204,3.382,0.293,5.106,0.293c10.037,0,19.258-3.413,26.581-9.157
	c-9.359-0.165-17.27-6.354-19.988-14.863c1.306,0.255,2.643,0.382,4.023,0.382c1.954,0,3.847-0.254,5.637-0.751
	c-9.781-1.961-17.168-10.622-17.168-20.987c0-0.09,0-0.179,0-0.27c2.891,1.605,6.19,2.572,9.698,2.675
	c-5.743-3.834-9.521-10.393-9.521-17.816c0-3.922,1.059-7.59,2.898-10.762c10.55,12.952,26.331,21.474,44.117,22.362
	c-0.363-1.563-0.555-3.195-0.555-4.877c0-11.818,9.585-21.396,21.409-21.396c6.151,0,11.718,2.598,15.62,6.75
	c4.872-0.955,9.457-2.738,13.597-5.185c-1.604,4.993-4.992,9.195-9.412,11.833c4.331-0.51,8.457-1.655,12.29-3.361
	C398.927,418.234,395.296,422.004,391.112,425.022z"/>
</svg>
