<?xml version="1.0" encoding="utf-8"?>
<!-- Generator: Adobe Illustrator 15.0.2, SVG Export Plug-In . SVG Version: 6.00 Build 0)  -->
<!DOCTYPE svg PUBLIC "-//W3C//DTD SVG 1.1//EN" "http://www.w3.org/Graphics/SVG/1.1/DTD/svg11.dtd">
<svg version="1.1" id="Layer_1" xmlns="http://www.w3.org/2000/svg" xmlns:xlink="http://www.w3.org/1999/xlink" x="0px" y="0px"
	 width="259.162px" height="259.16px" viewBox="-1.965 -0.803 259.162 259.16"
	 enable-background="new -1.965 -0.803 259.162 259.16" xml:space="preserve">
<path fill="#442E7F" d="M216.703-0.803H38.529c-22.358,0-40.494,18.144-40.494,40.494v178.174c0,22.364,18.136,40.492,40.494,40.492
	h178.174c22.366,0,40.494-18.128,40.494-40.492V39.691C257.197,17.341,239.069-0.803,216.703-0.803z"/>
<path fill="#FFFFFF" d="M90.941,106.788c0,0-11.617-6.689-14.268-8.24c-16.838,30.813-0.886,60.447-0.886,60.447l14.125-8.229
	C78.588,126.046,90.941,106.788,90.941,106.788z"/>
<path fill="#FFFFFF" d="M96.747,110.206c2.206,1.272,11.989,6.912,11.989,6.912c-5.229,13.862,0,22.723,0,22.723l-12.717,7.507
	C96.02,147.346,87.042,130.175,96.747,110.206z"/>
<path fill="#FFFFFF" d="M174.077,110.206c-2.215,1.272-11.977,6.912-11.977,6.912c5.203,13.862,0,22.723,0,22.723l12.701,7.507
	C174.806,147.346,183.789,130.175,174.077,110.206z"/>
<path fill="#FFFFFF" d="M139.372,86.984c0,2.556,0,13.042,0,13.042c14.615,2.404,19.061,11.167,19.061,11.167l11.627-6.659
	C170.06,104.534,160.11,89.144,139.372,86.984z"/>
<path fill="#FFFFFF" d="M132.203,86.984c0.008,2.556,0.008,13.042,0.008,13.042c-12.693,1.227-19.646,10.827-19.646,10.827
	l-11.769-6.763C100.796,104.091,111.434,88.163,132.203,86.984z"/>
<path fill="#FFFFFF" d="M139.372,172.82c0-2.547,0-15.226,0-15.226c12.398-1.521,19.456-11.587,19.456-11.587l12.651,7.055
	C171.481,153.063,161.724,170.52,139.372,172.82z"/>
<path fill="#FFFFFF" d="M132.163,172.82c0-2.547,0-15.146,0-15.146c-12.693-1.234-19.892-11.478-19.892-11.478l-12.955,7.505
	C99.318,153.704,109.765,171.35,132.163,172.82z"/>
<path fill="#FFFFFF" d="M93.251,157.152c0,0-11.151,6.51-13.81,8.027c19.194,29.801,52.722,29.99,52.722,29.99v-15.248
	C105.597,178.018,93.251,157.152,93.251,157.152z"/>
<path fill="#FFFFFF" d="M177.462,156.837c0,0,10.092,5.739,12.749,7.272c-18.729,30.276-50.839,30.822-50.839,30.822V179.92
	C166.485,176.941,177.462,156.837,177.462,156.837z"/>
<path fill="#FFFFFF" d="M132.163,80.096c0,0,0-12.427,0-16.103C95.79,65.97,80.597,92.44,80.597,92.44l14.095,8.17
	C109.693,80.017,132.163,80.096,132.163,80.096z"/>
<path fill="#FFFFFF" d="M176.007,100.983c0,0,10.566-6.066,13.225-7.593c-19.172-28.449-49.856-29.304-49.856-29.304v16.009
	C163.289,81.495,176.007,100.983,176.007,100.983z"/>
<g>
	<g>
		<g>
			<g>
				<defs>
					<path id="SVGID_1_" d="M158.111,128.582c0,12.092-9.807,21.897-21.9,21.897c-12.095,0-21.9-9.807-21.9-21.897
						c0-12.103,9.81-21.9,21.9-21.9C148.305,106.681,158.111,116.483,158.111,128.582z"/>
				</defs>
				<clipPath id="SVGID_2_">
					<use xlink:href="#SVGID_1_"  overflow="visible"/>
				</clipPath>
				<path clip-path="url(#SVGID_2_)" fill="#FFFFFF" d="M136.208,134.348c0,0,0,10.1,0,16.568c0,6.479,20.56-10.592,20.56-10.592
					l-13.841-7.646L136.208,134.348z"/>
			</g>
		</g>
	</g>
	<g>
		<g>
			<g>
				<defs>
					<path id="SVGID_3_" d="M158.111,128.582c0,12.092-9.807,21.897-21.9,21.897c-12.095,0-21.9-9.807-21.9-21.897
						c0-12.103,9.81-21.9,21.9-21.9C148.305,106.681,158.111,116.483,158.111,128.582z"/>
				</defs>
				<clipPath id="SVGID_4_">
					<use xlink:href="#SVGID_3_"  overflow="visible"/>
				</clipPath>
				<path clip-path="url(#SVGID_4_)" fill="#FFFFFF" stroke="#FFFFFF" stroke-miterlimit="10" d="M116.341,140.822
					c4.145-2.449,14.639-8.629,14.639-8.629h5.229v20.186C136.208,152.379,115.288,146.605,116.341,140.822z"/>
			</g>
		</g>
	</g>
	<g>
		<g>
			<g>
				<defs>
					<path id="SVGID_5_" d="M158.111,128.582c0,12.092-9.807,21.897-21.9,21.897c-12.095,0-21.9-9.807-21.9-21.897
						c0-12.103,9.81-21.9,21.9-21.9C148.305,106.681,158.111,116.483,158.111,128.582z"/>
				</defs>
				<clipPath id="SVGID_6_">
					<use xlink:href="#SVGID_5_"  overflow="visible"/>
				</clipPath>
				<path clip-path="url(#SVGID_6_)" fill="#FFFFFF" d="M128.321,124.936c0,0-9.459-5.688-11.979-7.063
					c-2.522-1.368-5.269,23.733-0.761,23.733l12.74-7.854V124.936L128.321,124.936z"/>
			</g>
		</g>
	</g>
	<g>
		<g>
			<g>
				<defs>
					<path id="SVGID_7_" d="M158.111,128.582c0,12.092-9.807,21.897-21.9,21.897c-12.095,0-21.9-9.807-21.9-21.897
						c0-12.103,9.81-21.9,21.9-21.9C148.305,106.681,158.111,116.483,158.111,128.582z"/>
				</defs>
				<clipPath id="SVGID_8_">
					<use xlink:href="#SVGID_7_"  overflow="visible"/>
				</clipPath>
				<path clip-path="url(#SVGID_8_)" fill="#FFFFFF" stroke="#FFFFFF" stroke-miterlimit="10" d="M114.308,117.823
					c3.82-10.93,22.64-12.201,22.64-12.201v15.794l-8.229,4.501L114.308,117.823z"/>
			</g>
		</g>
	</g>
	<g>
		<g>
			<g>
				<defs>
					<path id="SVGID_9_" d="M158.111,128.582c0,12.092-9.807,21.897-21.9,21.897c-12.095,0-21.9-9.807-21.9-21.897
						c0-12.103,9.81-21.9,21.9-21.9C148.305,106.681,158.111,116.483,158.111,128.582z"/>
				</defs>
				<clipPath id="SVGID_10_">
					<use xlink:href="#SVGID_9_"  overflow="visible"/>
				</clipPath>
				<path clip-path="url(#SVGID_10_)" fill="#FFFFFF" d="M136.947,122.579l4.363,4.363l14.854-9.119c0,0-4.508-9.553-19.22-12.786
					C136.947,111.409,136.947,122.579,136.947,122.579z"/>
			</g>
		</g>
	</g>
</g>
<path fill="#442E7F" d="M143.718,129.197c0,4.635-3.749,8.393-8.389,8.393c-4.618,0-8.375-3.758-8.375-8.393
	c0-4.618,3.757-8.376,8.375-8.376C139.969,120.821,143.718,124.58,143.718,129.197z"/>
</svg>
