<?xml version="1.0" encoding="utf-8"?>
<!-- Generator: Adobe Illustrator 15.0.2, SVG Export Plug-In . SVG Version: 6.00 Build 0)  -->
<!DOCTYPE svg PUBLIC "-//W3C//DTD SVG 1.1//EN" "http://www.w3.org/Graphics/SVG/1.1/DTD/svg11.dtd">
<svg version="1.1" xmlns="http://www.w3.org/2000/svg" xmlns:xlink="http://www.w3.org/1999/xlink" x="0px" y="0px"
	 width="288.095px" height="288.095px" viewBox="0 0 288.095 288.095" enable-background="new 0 0 288.095 288.095"
	 xml:space="preserve">
<g id="Layer_1">
	<path fill="#CA2027" d="M243.079,0H45.015C20.151,0,0,20.169,0,45.015v198.064c0,24.864,20.151,45.016,45.015,45.016h198.064
		c24.864,0,45.016-20.151,45.016-45.016V45.015C288.095,20.169,267.943,0,243.079,0z"/>
	<path fill="#FFFFFF" d="M158.923,176.138c-8.933,0-17.338-4.836-20.212-10.321c0,0-4.81,19.061-5.82,22.753
		c-3.588,12.995-14.129,26.007-14.938,27.062c-0.572,0.757-1.838,0.51-1.97-0.457c-0.229-1.67-2.919-18.076,0.246-31.457
		c1.592-6.718,10.647-45.085,10.647-45.085s-2.646-5.275-2.646-13.083c0-12.273,7.112-21.417,15.966-21.417
		c7.526,0,11.148,5.645,11.148,12.414c0,7.579-4.81,18.885-7.298,29.365c-2.074,8.774,4.396,15.931,13.057,15.931
		c15.676,0,26.234-20.134,26.234-43.977c0-18.147-12.212-31.722-34.429-31.722c-25.092,0-40.733,18.727-40.733,39.634
		c0,7.21,2.128,12.291,5.46,16.23c1.53,1.811,1.741,2.531,1.188,4.606c-0.405,1.53-1.302,5.188-1.688,6.646
		c-0.545,2.093-2.251,2.831-4.141,2.058c-11.562-4.712-16.942-17.373-16.942-31.599c0-23.509,19.817-51.696,59.135-51.696
		c31.589,0,52.382,22.859,52.382,47.406C203.568,151.89,185.519,176.138,158.923,176.138z"/>
</g>
<g id="Layer_2" display="none">
</g>
</svg>
