<?xml version="1.0" encoding="utf-8"?>
<!-- Generator: Adobe Illustrator 15.0.2, SVG Export Plug-In . SVG Version: 6.00 Build 0)  -->
<!DOCTYPE svg PUBLIC "-//W3C//DTD SVG 1.1//EN" "http://www.w3.org/Graphics/SVG/1.1/DTD/svg11.dtd">
<svg version="1.1" id="Layer_1" xmlns="http://www.w3.org/2000/svg" xmlns:xlink="http://www.w3.org/1999/xlink" x="0px" y="0px"
	 width="242.75px" height="242.752px" viewBox="0 0 242.75 242.752" enable-background="new 0 0 242.75 242.752"
	 xml:space="preserve">
<path fill="#A07254" d="M204.821,0H37.93C16.988,0,0,16.994,0,37.93v166.893c0,20.95,16.986,37.93,37.93,37.93h166.891
	c20.951,0,37.93-16.979,37.93-37.93V37.93C242.75,16.994,225.772,0,204.821,0z"/>
<path fill="#FFFFFF" d="M76.816,60.644h91.853c8.727,0,15.86,7.136,15.86,15.863v91.852c0,8.724-7.134,15.857-15.86,15.857H76.816
	c-8.727,0-15.868-7.134-15.868-15.857V76.507C60.948,67.78,68.089,60.644,76.816,60.644z M150.975,74.368
	c-3.064,0-5.564,2.509-5.564,5.572v13.311c0,3.064,2.5,5.566,5.564,5.566h13.966c3.059,0,5.563-2.502,5.563-5.566V79.94
	c0-3.063-2.504-5.572-5.563-5.572H150.975z M170.557,112.9h-10.872c1.03,3.369,1.589,6.92,1.589,10.612
	c0,20.547-17.205,37.214-38.419,37.214c-21.211,0-38.414-16.667-38.414-37.214c0-3.692,0.563-7.243,1.589-10.612H74.687v52.205
	c0,2.704,2.207,4.904,4.908,4.904h86.056c2.704,0,4.906-2.2,4.906-4.904V112.9z M122.855,98.116
	c-13.703,0-24.815,10.763-24.815,24.052c0,13.275,11.113,24.047,24.815,24.047c13.709,0,24.822-10.771,24.822-24.047
	C147.677,108.879,136.564,98.116,122.855,98.116z"/>
</svg>
