<?xml version="1.0" encoding="utf-8"?>
<!-- Generator: Adobe Illustrator 15.0.2, SVG Export Plug-In . SVG Version: 6.00 Build 0)  -->
<!DOCTYPE svg PUBLIC "-//W3C//DTD SVG 1.1//EN" "http://www.w3.org/Graphics/SVG/1.1/DTD/svg11.dtd">
<svg version="1.1" xmlns="http://www.w3.org/2000/svg" xmlns:xlink="http://www.w3.org/1999/xlink" x="0px" y="0px"
	 width="241.657px" height="241.657px" viewBox="-0.124 1.059 241.657 241.657"
	 enable-background="new -0.124 1.059 241.657 241.657" xml:space="preserve">
<g id="Layer_1">
	<g>
		<path fill="#ED3437" d="M112.496,160.974c-0.574,0.664-1.202,1.209-1.896,1.652c-0.686,0.427-1.261,0.634-1.703,0.634
			c-0.567,0-0.988-0.147-1.254-0.487c-0.244-0.324-0.375-0.841-0.375-1.563v-23.467h-6.115v25.576c0,1.829,0.362,3.17,1.07,4.085
			c0.722,0.93,1.777,1.372,3.2,1.372c1.143,0,2.331-0.31,3.548-0.975c1.224-0.648,2.396-1.592,3.524-2.831v3.363h6.114v-30.591
			h-6.114V160.974z"/>
		<polygon fill="#ED3437" points="77.326,132.905 84.45,132.905 84.45,168.334 91.338,168.334 91.338,132.905 98.469,132.905 
			98.469,126.873 77.326,126.873 		"/>
		<path fill="#ED3437" d="M134.826,137.375c-0.949,0-1.887,0.235-2.823,0.722c-0.915,0.486-1.792,1.211-2.619,2.125v-13.349h-6.179
			v41.461h6.179v-2.346c0.797,0.944,1.682,1.623,2.619,2.065c0.929,0.457,1.991,0.663,3.193,0.663c1.806,0,3.201-0.561,4.151-1.725
			c0.966-1.166,1.438-2.817,1.438-4.972v-16.978c0-2.506-0.501-4.408-1.526-5.722C138.241,138.023,136.766,137.375,134.826,137.375z
			 M134.488,161.165c0,0.988-0.178,1.682-0.525,2.109c-0.353,0.443-0.898,0.665-1.649,0.665c-0.518,0-1.004-0.119-1.476-0.341
			c-0.473-0.205-0.959-0.591-1.454-1.076v-19.057c0.421-0.428,0.834-0.737,1.262-0.943c0.429-0.192,0.863-0.296,1.299-0.296
			c0.817,0,1.46,0.266,1.902,0.797c0.435,0.53,0.642,1.313,0.642,2.36V161.165z"/>
		<path fill="#ED3437" d="M203.773,1.059H37.635c-20.849,0-37.759,16.918-37.759,37.759v166.138c0,20.857,16.91,37.76,37.759,37.76
			h166.139c20.855,0,37.76-16.902,37.76-37.76V38.818C241.533,17.977,224.629,1.059,203.773,1.059z"/>
		<path fill="#ED3437" d="M153.28,136.99c-2.738,0-4.957,0.827-6.689,2.493c-1.733,1.667-2.597,3.85-2.597,6.489v13.732
			c0,2.95,0.796,5.266,2.36,6.933c1.57,1.696,3.73,2.522,6.468,2.522c3.045,0,5.339-0.782,6.858-2.36
			c1.548-1.594,2.308-3.953,2.308-7.095v-1.563h-6.291v1.387c0,1.8-0.213,2.964-0.604,3.495c-0.406,0.531-1.113,0.797-2.131,0.797
			c-0.974,0-1.667-0.31-2.072-0.929c-0.398-0.635-0.597-1.755-0.597-3.363v-5.752h11.695v-7.804c0-2.905-0.751-5.118-2.256-6.665
			C158.234,137.758,156.082,136.99,153.28,136.99z M155.697,149.012h-5.404v-3.083c0-1.283,0.205-2.213,0.634-2.742
			c0.428-0.576,1.12-0.856,2.094-0.856c0.93,0,1.622,0.28,2.036,0.856c0.42,0.529,0.641,1.459,0.641,2.742V149.012z"/>
	</g>
	<path fill="#FFFFFF" d="M135.276,74.777h6.873v25.826c0,0.796,0.163,1.372,0.443,1.726c0.28,0.369,0.76,0.545,1.401,0.545
		c0.501,0,1.15-0.236,1.925-0.708c0.768-0.487,1.475-1.077,2.116-1.813V74.777h6.888v33.688h-6.888v-3.732
		c-1.26,1.373-2.581,2.435-3.961,3.142c-1.371,0.708-2.698,1.092-3.989,1.092c-1.6,0-2.787-0.516-3.599-1.534
		c-0.804-0.989-1.21-2.493-1.21-4.498V74.777z M109.724,82.477c0-2.611,0.929-4.69,2.772-6.225c1.852-1.549,4.351-2.316,7.479-2.316
		c2.848,0,5.177,0.812,7.006,2.434c1.807,1.623,2.715,3.747,2.715,6.298v17.405c0,2.891-0.887,5.133-2.664,6.785
		c-1.791,1.637-4.247,2.463-7.374,2.463c-3.009,0-5.421-0.855-7.228-2.552c-1.8-1.696-2.707-3.967-2.707-6.829V82.477z
		 M90.977,62.801l5.03,18.259h0.487l4.801-18.259h7.869l-9.019,26.726v18.939H92.4V90.367l-9.227-27.566H90.977z M181.119,158.908
		c0,12.185-9.889,22.08-22.073,22.08h-76.69c-12.191,0-22.065-9.896-22.065-22.08v-17.743c0-12.183,9.875-22.081,22.065-22.081
		h76.69c12.185,0,22.073,9.898,22.073,22.081V158.908z"/>
	<path fill="#ED3437" d="M119.635,102.48c0.937,0,1.675-0.251,2.22-0.768c0.553-0.516,0.833-1.238,0.833-2.139V81.226
		c0-0.738-0.28-1.328-0.841-1.785c-0.56-0.458-1.297-0.679-2.212-0.679c-0.833,0-1.519,0.221-2.05,0.679
		c-0.517,0.457-0.781,1.047-0.781,1.785v18.348c0,0.93,0.25,1.638,0.737,2.139C118.027,102.244,118.729,102.48,119.635,102.48z"/>
	<g>
		<path fill="#ED3437" d="M112.496,160.974c-0.574,0.664-1.202,1.209-1.896,1.652c-0.686,0.427-1.261,0.634-1.703,0.634
			c-0.567,0-0.988-0.147-1.254-0.487c-0.244-0.324-0.375-0.841-0.375-1.563v-23.467h-6.115v25.576c0,1.829,0.362,3.17,1.07,4.085
			c0.722,0.93,1.777,1.372,3.2,1.372c1.143,0,2.331-0.31,3.548-0.975c1.224-0.648,2.396-1.592,3.524-2.831v3.363h6.114v-30.591
			h-6.114V160.974z"/>
		<polygon fill="#ED3437" points="77.326,132.905 84.45,132.905 84.45,168.334 91.338,168.334 91.338,132.905 98.469,132.905 
			98.469,126.873 77.326,126.873 		"/>
		<path fill="#ED3437" d="M134.826,137.375c-0.949,0-1.887,0.235-2.823,0.722c-0.915,0.486-1.792,1.211-2.619,2.125v-13.349h-6.179
			v41.461h6.179v-2.346c0.797,0.944,1.682,1.623,2.619,2.065c0.929,0.457,1.991,0.663,3.193,0.663c1.806,0,3.201-0.561,4.151-1.725
			c0.966-1.166,1.438-2.817,1.438-4.972v-16.978c0-2.506-0.501-4.408-1.526-5.722C138.241,138.023,136.766,137.375,134.826,137.375z
			 M134.488,161.165c0,0.988-0.178,1.682-0.525,2.109c-0.353,0.443-0.898,0.665-1.649,0.665c-0.518,0-1.004-0.119-1.476-0.341
			c-0.473-0.205-0.959-0.591-1.454-1.076v-19.057c0.421-0.428,0.834-0.737,1.262-0.943c0.429-0.192,0.863-0.296,1.299-0.296
			c0.817,0,1.46,0.266,1.902,0.797c0.435,0.53,0.642,1.313,0.642,2.36V161.165z"/>
		<path fill="#ED3437" d="M153.28,136.99c-2.738,0-4.957,0.827-6.689,2.493c-1.733,1.667-2.597,3.85-2.597,6.489v13.732
			c0,2.95,0.796,5.266,2.36,6.933c1.57,1.696,3.73,2.522,6.468,2.522c3.045,0,5.339-0.782,6.858-2.36
			c1.548-1.594,2.308-3.953,2.308-7.095v-1.563h-6.291v1.387c0,1.8-0.213,2.964-0.604,3.495c-0.406,0.531-1.113,0.797-2.131,0.797
			c-0.974,0-1.667-0.31-2.072-0.929c-0.398-0.635-0.597-1.755-0.597-3.363v-5.752h11.695v-7.804c0-2.905-0.751-5.118-2.256-6.665
			C158.234,137.758,156.082,136.99,153.28,136.99z M155.697,149.012h-5.404v-3.083c0-1.283,0.205-2.213,0.634-2.742
			c0.428-0.576,1.12-0.856,2.094-0.856c0.93,0,1.622,0.28,2.036,0.856c0.42,0.529,0.641,1.459,0.641,2.742V149.012z"/>
	</g>
</g>
<g id="Layer_2" display="none">
</g>
</svg>
