<?xml version="1.0" encoding="utf-8"?>
<!-- Generator: Adobe Illustrator 15.0.2, SVG Export Plug-In . SVG Version: 6.00 Build 0)  -->
<!DOCTYPE svg PUBLIC "-//W3C//DTD SVG 1.1//EN" "http://www.w3.org/Graphics/SVG/1.1/DTD/svg11.dtd">
<svg version="1.1" id="Layer_1" xmlns="http://www.w3.org/2000/svg" xmlns:xlink="http://www.w3.org/1999/xlink" x="0px" y="0px"
	 width="223.667px" height="223.667px" viewBox="189.763 396 223.667 223.667" enable-background="new 189.763 396 223.667 223.667"
	 xml:space="preserve">
<g id="Layer_1_1_">
	<g>
		<path fill="#0A6C9B" d="M378.481,396H224.711c-19.303,0-34.948,15.658-34.948,34.948v153.771
			c0,19.305,15.645,34.948,34.948,34.948h153.771c19.297,0,34.947-15.646,34.947-34.948V430.948
			C413.43,411.658,397.778,396,378.481,396z"/>
		<path fill="#0A6C9B" d="M308.299,499.615v-0.231c-0.041,0.081-0.103,0.163-0.157,0.231H308.299z"/>
	</g>
	<g>
		<path fill="#FFFFFF" d="M271.07,561.28h-23.978v-72.108h23.978V561.28z M259.078,479.329h-0.157
			c-8.041,0-13.241-5.557-13.241-12.464c0-7.085,5.364-12.479,13.556-12.479c8.204,0,13.255,5.395,13.406,12.479
			C272.642,473.772,267.439,479.329,259.078,479.329z M357.513,561.28H333.54V522.7c0-9.693-3.467-16.313-12.149-16.313
			c-6.613,0-10.564,4.479-12.301,8.777c-0.634,1.543-0.791,3.687-0.791,5.844v40.272h-23.966c0,0,0.309-65.352,0-72.108h23.966
			v10.212c3.195-4.916,8.889-11.903,21.61-11.903c15.769,0,27.604,10.307,27.604,32.463V561.28L357.513,561.28z"/>
		<path fill="#FFFFFF" d="M308.299,499.615v-0.231c-0.041,0.081-0.103,0.163-0.157,0.231H308.299z"/>
	</g>
</g>
<g id="Layer_2">
</g>
</svg>
