<?xml version="1.0" encoding="utf-8"?>
<!-- Generator: Adobe Illustrator 15.0.2, SVG Export Plug-In . SVG Version: 6.00 Build 0)  -->
<!DOCTYPE svg PUBLIC "-//W3C//DTD SVG 1.1//EN" "http://www.w3.org/Graphics/SVG/1.1/DTD/svg11.dtd">
<svg version="1.1" id="Layer_1" xmlns="http://www.w3.org/2000/svg" xmlns:xlink="http://www.w3.org/1999/xlink" x="0px" y="0px"
	 width="756px" height="143px" viewBox="18.5 235.5 756 143" enable-background="new 18.5 235.5 756 143" xml:space="preserve">
<g>
	<path fill="#FFFFFF" d="M157.077,306.363c0,36.551-29.63,66.176-66.182,66.176c-36.549,0-66.177-29.625-66.177-66.176
		c0-36.549,29.628-66.184,66.177-66.184C127.447,240.179,157.077,269.814,157.077,306.363"/>
	<path fill="none" stroke="#313335" stroke-width="3.4495" d="M157.077,306.363c0,36.551-29.63,66.176-66.182,66.176
		c-36.549,0-66.177-29.625-66.177-66.176c0-36.549,29.628-66.184,66.177-66.184C127.447,240.179,157.077,269.814,157.077,306.363z"
		/>
	<path d="M62.414,274.942c0,0-1.238-3.133-4.811,0.874c0,0-7.285-2.044-7.937,2.47c0,0,2.038-0.585,3.056,1.316
		c0,0-9.25,5.69-1.305,16.615c0,0-1.608,1.087-1.608,2.91c0,4.376,3.865,3.282,3.865,3.282c6.117-3.282,1.743-9.335,1.743-9.335
		s2.48-1.298,1.82-2.913h0.515v29.368h-1.023v4.148h9.543v-4.148h-0.869V290.1h0.728v-4.665h-9.546v3.423
		c0,0-1.542-1.332-2.183,1.015c-0.437,1.604-2.04-1.093-2.04-1.093s-1.676-3.786-0.073-3.201c0.794,0.291,0.435,2.261,1.82,1.092
		c0,0,1.956-4.269,7.505-4.081c8.23,0.295,9.832-2.544,9.832-2.544s2.841-3.139-0.289-5.184c-3.135-2.027-6.124,2.261-4.659,3.943
		c0,0-2.102,0.491-4.741-2.329C60.732,275.386,62.414,274.942,62.414,274.942"/>
	<rect x="58.119" y="286.818" fill="#FFFFFF" width="6.408" height="1.742"/>
	<rect x="58.243" y="320.76" fill="#FFFFFF" width="6.408" height="1.753"/>
	<rect x="59.28" y="290.1" fill="#FFFFFF" width="1.529" height="29.359"/>
	<rect x="62.194" y="290.1" fill="#FFFFFF" width="1.529" height="29.359"/>
	<path d="M120.111,274.942c0,0,1.235-3.133,4.807,0.874c0,0,7.284-2.044,7.938,2.47c0,0-2.039-0.585-3.059,1.316
		c0,0,9.25,5.69,1.313,16.615c0,0,1.602,1.087,1.602,2.91c0,4.376-3.862,3.282-3.862,3.282c-6.12-3.282-1.75-9.335-1.75-9.335
		s-2.475-1.298-1.823-2.913h-0.509v29.368h1.023v4.148h-9.541v-4.148h0.872V290.1h-0.728v-4.665h9.543v3.423
		c0,0,1.548-1.332,2.186,1.015c0.433,1.604,2.037-1.093,2.037-1.093s1.676-3.786,0.079-3.201c-0.807,0.291-0.442,2.261-1.826,1.092
		c0,0-1.959-4.269-7.505-4.081c-8.228,0.295-9.831-2.544-9.831-2.544s-2.842-3.139,0.293-5.184c3.129-2.027,6.114,2.261,4.664,3.943
		c0,0,2.09,0.491,4.729-2.329C121.784,275.386,120.111,274.942,120.111,274.942"/>
	<rect x="117.995" y="286.818" fill="#FFFFFF" width="6.415" height="1.742"/>
	<rect x="117.87" y="320.76" fill="#FFFFFF" width="6.408" height="1.753"/>
	<rect x="121.711" y="290.1" fill="#FFFFFF" width="1.536" height="29.359"/>
	<rect x="118.798" y="290.1" fill="#FFFFFF" width="1.529" height="29.359"/>
	<path d="M104.074,279.317c-2.215-0.232-2.44,0.897-2.306,1.758c-0.451-0.722-1.313-1.588-2.929-1.758
		c-2.208-0.232-2.441,0.897-2.3,1.758c-0.454-0.722-1.32-1.588-2.93-1.758c-2.211-0.232-2.443,0.897-2.299,1.758
		c-0.457-0.722-1.313-1.588-2.93-1.758c-2.21-0.232-2.439,0.897-2.302,1.758c-0.451-0.722-1.316-1.588-2.93-1.758
		c-2.208-0.232-2.437,0.897-2.303,1.758c-0.451-0.722-1.307-1.588-2.927-1.758c-3.511-0.365-2.018,2.699-2.018,2.699
		s0.072-1.101,2.691,0.722c2.606,1.822,2.685-0.654,2.685-0.654s-0.02-0.094-0.067-0.248c0.172-0.217,0.743-0.396,2.615,0.901
		c2.61,1.822,2.685-0.654,2.685-0.654s-0.02-0.094-0.074-0.248c0.176-0.217,0.747-0.396,2.616,0.901
		c2.619,1.822,2.692-0.654,2.692-0.654s-0.024-0.094-0.073-0.248c0.173-0.217,0.745-0.396,2.613,0.901
		c2.614,1.822,2.689-0.654,2.689-0.654s-0.024-0.094-0.076-0.248c0.176-0.217,0.748-0.396,2.616,0.901
		c2.616,1.822,2.695-0.654,2.695-0.654s-0.027-0.094-0.076-0.248c0.173-0.217,0.743-0.396,2.61,0.901
		c2.619,1.822,2.693-0.654,2.693-0.654S106.912,279.603,104.074,279.317"/>
	<path d="M91.185,342.609c0,0-3.276-5.088-15.293-7.935c-12.021-2.843-12.463-8.376-12.463-8.376
		c4.517-1.31,4.377-5.171,4.377-5.171v-35.693h46.912v35.693c0,0-0.147,3.861,4.37,5.171c0,0-0.441,5.533-12.461,8.376
		c-12.019,2.847-15.338,7.83-15.338,7.83L91.185,342.609z M91.264,340.363c0,0,3.2-4.592,13.253-6.859
		c10.179-2.275,12.53-6.477,12.53-6.477s-3.932-1.307-3.932-5.83v-34.311H69.406v34.311c0,4.523-3.932,5.83-3.932,5.83
		s2.358,4.2,12.529,6.477C88.05,335.771,91.264,340.363,91.264,340.363"/>
	<polygon points="91.329,305.898 110.273,288.492 72.245,288.492 91.185,305.898 	"/>
	<polygon fill="#FFFFFF" points="91.329,289.95 106.341,289.95 91.264,303.866 76.176,289.95 	"/>
	<rect x="77.493" y="289.658" width="1.457" height="3.132"/>
	<rect x="80.328" y="289.686" width="1.463" height="5.77"/>
	<rect x="83.249" y="289.718" width="1.454" height="8.332"/>
	<rect x="86.162" y="289.747" width="1.457" height="10.965"/>
	<rect x="91.989" y="289.783" width="1.46" height="13.673"/>
	<rect x="103.571" y="289.658" width="1.457" height="3.132"/>
	<rect x="100.729" y="289.686" width="1.456" height="5.77"/>
	<rect x="97.815" y="289.718" width="1.454" height="8.332"/>
	<rect x="94.901" y="289.747" width="1.46" height="10.965"/>
	<rect x="89.068" y="289.783" width="1.461" height="13.673"/>
	<path fill="#FFFFFF" d="M95.594,294.901c0,1.26-1.939,2.293-4.33,2.293c-2.398,0-4.338-1.033-4.338-2.293
		c0-1.263,1.94-2.284,4.338-2.284C93.655,292.618,95.594,293.638,95.594,294.901"/>
	<path fill="none" stroke="#313335" stroke-width="1.1719" d="M95.594,294.901c0,1.26-1.939,2.293-4.33,2.293
		c-2.398,0-4.338-1.033-4.338-2.293c0-1.263,1.94-2.284,4.338-2.284C93.655,292.618,95.594,293.638,95.594,294.901z"/>
	<path d="M93.198,294.934c0,1.076-0.865,1.944-1.934,1.944c-1.072,0-1.943-0.868-1.943-1.944c0-1.064,0.871-1.934,1.943-1.934
		C92.333,293,93.198,293.87,93.198,294.934"/>
	<polygon points="71.079,321.934 71.079,291.263 88.932,306.482 	"/>
	<polygon fill="#FFFFFF" points="72.751,294.761 86.515,306.41 72.673,318.366 	"/>
	<polygon points="76.847,299.262 76.978,301.411 79.062,301.947 77.062,302.733 77.2,304.875 75.829,303.224 73.829,304.014 
		74.981,302.198 73.609,300.546 75.696,301.067 	"/>
	<polygon points="81.321,304.239 81.452,306.382 83.53,306.924 81.537,307.718 81.664,309.86 80.303,308.201 78.304,308.991 
		79.452,307.17 78.091,305.523 80.162,306.046 	"/>
	<polygon points="76.938,308.186 77.064,310.332 79.146,310.863 77.155,311.657 77.285,313.802 75.916,312.146 73.913,312.925 
		75.073,311.118 73.698,309.459 75.781,309.994 	"/>
	<polygon points="111.438,321.934 111.438,291.263 93.589,306.482 	"/>
	<polygon fill="#FFFFFF" points="109.773,294.761 96,306.41 109.842,318.366 	"/>
	<polygon points="105.674,299.262 105.544,301.411 103.459,301.947 105.455,302.733 105.329,304.875 106.693,303.224 
		108.699,304.014 107.536,302.198 108.908,300.546 106.831,301.067 	"/>
	<polygon points="101.199,304.239 101.069,306.382 98.985,306.924 100.991,307.718 100.85,309.86 102.218,308.201 104.221,308.991 
		103.067,307.17 104.433,305.523 102.355,306.046 	"/>
	<polygon points="105.583,308.186 105.453,310.332 103.368,310.863 105.367,311.657 105.237,313.802 106.605,312.146 
		108.604,312.925 107.448,311.118 108.82,309.459 106.742,309.994 	"/>
	<path d="M97.319,278.244c0,0,1.796-0.366-0.059-1.199c-4.716-2.123-4.115-5.726-4.115-5.726c0-0.953,1.195-1.015,1.195-1.015
		c11.333-1.013,14.74-6.749,14.74-6.749s2.505-3.096-0.722-5.131c-4.474-2.815-8.053,4.179-8.053,4.179s-13.725,0.176-17.311,0
		c-3.582-0.174-4.77-2.683-4.77-2.683h-5.076c0,0,2.744,9.253,16.893,10.511c0,0,1.313,4.095-4.356,6.438
		c-1.735,0.718-0.418,1.314-0.418,1.314L97.319,278.244"/>
	<path fill="#FFFFFF" d="M106.514,262.546c0,0,2.448-0.957,0.777-2.327c-2.061-1.696-4.72,2.327-4.72,2.327H106.514"/>
	<path d="M75.537,259.023c0.48-0.599,2.146-3.522,0.418-4.655c-1.732-1.131-1.967-2.323-1.967-2.323s0.095,1.585-1.258,3.338
		C71.715,256.7,75.537,259.023,75.537,259.023"/>
	<path d="M91.473,261.533h8.179c0,0,0.532-1.241-5.732-4.895c-1.434-0.834,0.177-1.372,0.177-1.372s2.609-0.777-0.353-3.166
		c-1.911-1.532-2.166-1.499-2.362-1.561h-0.009c-0.441,0.062-1.382,0.973-2.291,1.561c-3.181,2.09-0.356,3.166-0.356,3.166
		s1.61,0.538,0.18,1.372c-6.262,3.654-5.728,4.895-5.728,4.895h8.178"/>
	<path d="M91.215,306.888l23.892,20.47c0,0-3.498,3.35-12.022,5.09c-7.431,1.536-11.691,5.965-11.691,5.965l-0.087,0.07
		c0,0-4.533-4.499-11.964-6.035c-8.53-1.74-12.019-5.09-12.019-5.09L91.215,306.888 M91.185,308.887l-21.341,18.517
		c0,0,1.96,2.045,10.419,3.854c6.479,1.381,11.018,5.485,11.018,5.485l0.113-0.104c0,0,4.24-4.002,10.721-5.383
		c8.453-1.81,10.418-3.854,10.418-3.854L91.185,308.887"/>
	<rect x="71.425" y="324.604" width="1.379" height="4.661"/>
	<rect x="74.639" y="321.912" width="1.365" height="8.691"/>
	<rect x="77.84" y="319.117" width="1.372" height="12.229"/>
	<rect x="84.248" y="313.529" width="1.378" height="20.111"/>
	<rect x="87.455" y="310.348" width="1.372" height="25.107"/>
	<rect x="90.655" y="308.227" width="1.376" height="29.062"/>
	<rect x="93.87" y="310.348" width="1.372" height="25.107"/>
	<rect x="97.071" y="313.626" width="1.372" height="19.63"/>
	<rect x="81.04" y="316.317" width="1.378" height="15.979"/>
	<rect x="100.278" y="316.416" width="1.373" height="15.787"/>
	<rect x="103.482" y="319.117" width="1.375" height="12.141"/>
	<rect x="106.687" y="321.724" width="1.375" height="8.775"/>
	<rect x="109.895" y="324.604" width="1.368" height="4.661"/>
	<path d="M84.652,326.916c2.229-5.666,1.675-5.97,1.675-5.97c-0.419,0.474-1.035,0.776-1.727,0.776c-1.27,0-2.306-1.045-2.306-2.315
		c0-0.854,0.817-3.665,5.774-2.318c0,0,0.432,0.219,4.724-0.329c4.911-0.631,4.618,4.571,4.618,4.571s-0.432,3.229-0.092,4.142
		c0,0,3.61,1.541,0.529,4.72c0,0-6.689-0.384-10.451,0.483C87.397,330.676,83.591,329.617,84.652,326.916"/>
	<path fill="#FFFFFF" d="M86.333,318.009c0,0,2.652,1.88,0.727,5.298c-2.089,3.705-1.106,6.164,0,6.118
		c1.11-0.05,1.347-1.686,0.673-3.087c0,0,8.689,0.785,8.477-0.865c-0.19-1.481,1.057-7.655-2.698-7.7
		C93.511,317.771,88.406,318.49,86.333,318.009"/>
	<path d="M93.988,322.242c0,0.912-0.731,1.637-1.637,1.637c-0.898,0-1.636-0.725-1.636-1.637c0-0.897,0.738-1.634,1.636-1.634
		C93.256,320.608,93.988,321.345,93.988,322.242 M92.309,321.085c-0.64,0-1.16,0.522-1.16,1.157c0,0.645,0.52,1.155,1.16,1.155
		c0.637,0,1.145-0.512,1.145-1.155C93.454,321.607,92.946,321.085,92.309,321.085"/>
	<rect x="91.055" y="321.926" width="2.6" height="0.426"/>
	<polygon points="87.975,318.49 90.528,318.49 90.528,319.303 90.237,319.303 89.997,318.867 89.373,318.867 89.951,319.889 
		89.176,320.896 89.951,320.896 90.284,320.656 90.528,320.656 90.528,321.526 88.406,321.526 88.023,321.331 88.984,319.846 	"/>
	<path d="M93.341,326.586v-0.137c0.081,0,0.17-0.008,0.248-0.022c0.04,0,0.075-0.013,0.092-0.029
		c0.019-0.013,0.025-0.031,0.033-0.068c0.019-0.049,0.019-0.238,0.027-0.551c0.004-0.227,0.004-0.451,0.004-0.689
		c0-0.459,0-0.687-0.004-0.702c0,0-0.058-0.005-0.153-0.005c-0.199,0-0.378,0-0.519,0.005c-0.088,0.007-0.131,0.017-0.141,0.022
		c-0.012,0.007-0.026,0.022-0.028,0.033c-0.007,0.016-0.021,0.108-0.037,0.303H92.67c0.004-0.231,0-0.418-0.022-0.584l0.027-0.011
		c0.458,0.011,0.902,0.021,1.339,0.021c0.432,0,0.908-0.01,1.444-0.021l0.033,0.021c-0.033,0.166-0.049,0.354-0.066,0.574h-0.184
		c-0.012-0.195-0.025-0.303-0.035-0.312c-0.017-0.017-0.036-0.029-0.072-0.029c-0.118-0.021-0.343-0.021-0.696-0.021
		c-0.025,0-0.039,0-0.045,0.005c-0.006,0.007-0.011,0.046-0.011,0.096l-0.012,1.17c0,0.336,0.003,0.544,0.008,0.623
		c0.008,0.066,0.027,0.119,0.054,0.13c0.02,0.011,0.138,0.022,0.339,0.046v0.137c-0.212-0.004-0.43-0.014-0.675-0.014
		C93.785,326.572,93.531,326.582,93.341,326.586"/>
	<path fill="#FFFFFF" d="M85.868,319.459c0,0.678-0.549,1.236-1.242,1.236c-0.68,0-1.24-0.56-1.24-1.236
		c0-0.679,0.561-1.247,1.24-1.247C85.319,318.212,85.868,318.78,85.868,319.459"/>
	<path fill="#FFFFFF" d="M97.365,329.425c1.443-1.499-0.079-2.97-0.079-2.97l-0.021,0.026c-2.116,1.779-8.282,0.921-8.282,0.921
		s0.291,1.83-0.19,2.067C88.311,329.706,90.676,328.462,97.365,329.425"/>
	<path d="M51.03,338.907l0.817,0.28c-0.076,0.278-0.068,0.513,0.023,0.704c0.087,0.189,0.257,0.337,0.502,0.459
		c0.259,0.109,0.478,0.144,0.657,0.098c0.186-0.05,0.307-0.153,0.379-0.297c0.046-0.1,0.046-0.188,0.026-0.281
		c-0.026-0.087-0.102-0.192-0.215-0.297c-0.079-0.079-0.269-0.242-0.562-0.476c-0.386-0.297-0.625-0.57-0.726-0.804
		c-0.143-0.335-0.143-0.666,0-0.981c0.096-0.191,0.237-0.363,0.439-0.496c0.188-0.121,0.421-0.178,0.678-0.178
		c0.258,0.006,0.543,0.077,0.851,0.217c0.496,0.225,0.82,0.507,0.969,0.843c0.154,0.335,0.147,0.688-0.003,1.064l-0.822-0.32
		c0.065-0.231,0.058-0.415-0.018-0.557c-0.074-0.143-0.215-0.264-0.44-0.358c-0.238-0.11-0.44-0.145-0.614-0.104
		c-0.11,0.01-0.193,0.088-0.242,0.185c-0.039,0.097-0.037,0.199,0.007,0.303c0.065,0.131,0.271,0.337,0.621,0.604
		c0.342,0.266,0.587,0.497,0.737,0.681c0.137,0.181,0.223,0.39,0.248,0.609c0.03,0.215-0.016,0.455-0.137,0.707
		c-0.098,0.229-0.265,0.42-0.477,0.566c-0.222,0.139-0.467,0.203-0.745,0.196c-0.271,0-0.588-0.093-0.928-0.245
		c-0.508-0.23-0.842-0.519-1.005-0.878C50.887,339.789,50.88,339.375,51.03,338.907"/>
	<polygon points="55.238,342.016 56.256,337.744 57.119,337.947 56.094,342.229 	"/>
	<path d="M59.778,341.183l0.083-0.733l1.888,0.228l-0.215,1.743c-0.202,0.159-0.486,0.286-0.853,0.379
		c-0.362,0.093-0.728,0.116-1.087,0.077c-0.452-0.061-0.836-0.205-1.15-0.443c-0.317-0.223-0.539-0.525-0.666-0.905
		c-0.128-0.386-0.171-0.784-0.112-1.211c0.058-0.444,0.199-0.849,0.432-1.17c0.235-0.334,0.544-0.568,0.933-0.72
		c0.297-0.109,0.656-0.137,1.071-0.087c0.542,0.071,0.945,0.231,1.223,0.496c0.274,0.264,0.437,0.602,0.473,1.016l-0.892,0.051
		c-0.032-0.218-0.129-0.398-0.279-0.549c-0.154-0.147-0.36-0.23-0.616-0.264c-0.385-0.052-0.705,0.04-0.959,0.26
		c-0.265,0.226-0.418,0.567-0.483,1.051c-0.059,0.524,0.007,0.928,0.209,1.213c0.199,0.294,0.483,0.453,0.856,0.502
		c0.185,0.023,0.377,0.016,0.571-0.039c0.193-0.049,0.37-0.115,0.512-0.202l0.066-0.562L59.778,341.183"/>
	<polygon points="62.581,343.163 63.09,338.779 64.409,338.938 64.844,342.009 65.971,339.121 67.288,339.275 66.781,343.643 
		65.964,343.537 66.359,340.103 65.101,343.449 64.259,343.348 63.801,339.811 63.393,343.244 	"/>
	<path d="M71.915,344.19l-0.948-0.098l-0.273-1.034l-1.751-0.185l-0.457,0.953l-0.948-0.097l2.14-4.198l0.938,0.096L71.915,344.19z
		 M70.487,342.283l-0.448-1.675l-0.751,1.552L70.487,342.283"/>
	<path d="M129.874,333.801c0,0,3.709-1.227,1.237-3.276c-2.48-2.043-4.011-1.1-4.011-1.1s-1.823,0.738-0.801,2.126h3.498
		L129.874,333.801z M52.582,331.551h3.492c1.02-1.388-0.804-2.126-0.804-2.126s-1.523-0.943-4.004,1.1
		c-2.475,2.051,1.238,3.276,1.238,3.276L52.582,331.551z M49.299,339.121c0.072,3.424,9.106,4.593,9.106,4.593
		s14.133,1.748,14.205,1.525c1.76-5.263,5.245-4.657,5.173-5.539c-0.072-0.865-2.257-0.944-2.257-0.944s-2.841-0.137-12.163-0.796
		c-9.335-0.665-13.921-3.864-13.921-3.864C48.712,335.623,49.299,339.121,49.299,339.121 M91.185,344.126
		c0,0,11.438,0.392,11.752-4.668c0,0,0.196-2.228,3.623-2.083c3.418,0.146,17.555-1.17,17.92-1.963v-5.387
		c0,0,4.078-5.323,8.67,0.858c0,0,2.149,3.253,1.019,9.548c-0.509,2.85-5.686,4.01-5.686,4.01s-7.284,1.455-18.209,2.188
		l0.216,2.111c0,0,0.669,1.933-8.303,3.785c-6.682,1.385-10.998,1.189-10.998,1.189h-0.003c0,0-3.697,0.194-11-1.189
		c-8.995-1.695-8.303-3.785-8.303-3.785l0.22-2.111c-10.927-0.733-18.216-2.188-18.216-2.188s-5.174-1.16-5.677-4.01
		c-1.133-6.295,1.022-9.548,1.022-9.548c4.582-6.183,8.666-0.858,8.666-0.858v5.387c0.358,0.793,14.495,2.109,17.919,1.963
		c3.422-0.145,3.619,2.083,3.619,2.083C79.754,344.518,91.185,344.126,91.185,344.126 M132.928,334.096
		c0,0-4.586,3.199-13.914,3.864c-9.322,0.659-12.16,0.796-12.16,0.796s-2.184,0.079-2.264,0.944
		c-0.072,0.882,3.424,0.276,5.175,5.539c0.071,0.223,14.204-1.525,14.204-1.525s9.038-1.169,9.105-4.593
		C133.074,339.121,133.659,335.623,132.928,334.096 M91.185,352.166c12.242-0.152,17.415-3.576,17.415-3.576
		s-0.66-6.918-2.697-5.979c-6.794,3.171-14.718,2.987-14.718,2.987s-7.914,0.184-14.718-2.987c-2.035-0.939-2.692,5.979-2.692,5.979
		S78.95,352.014,91.185,352.166"/>
	<polygon points="81.021,350.087 81.779,346.523 80.518,346.249 80.675,345.52 84.058,346.244 83.909,346.971 82.643,346.699 
		81.879,350.272 	"/>
	<polygon points="84.313,350.737 84.807,346.363 85.686,346.464 85.489,348.18 87.213,348.373 87.403,346.65 88.278,346.755 
		87.792,351.132 86.917,351.018 87.122,349.111 85.411,348.924 85.195,350.836 	"/>
	<polygon points="89.324,351.211 89.356,346.804 92.603,346.826 92.599,347.578 90.236,347.562 90.225,348.533 92.429,348.543 
		92.427,349.293 90.222,349.279 90.212,350.473 92.661,350.479 92.661,351.227 	"/>
	<polygon points="94.987,351.061 94.641,347.421 93.351,347.548 93.275,346.804 96.728,346.475 96.801,347.219 95.512,347.33 
		95.869,350.979 	"/>
	<path d="M102.212,349.863l-0.931,0.192l-0.584-0.903l-1.712,0.358l-0.15,1.054l-0.93,0.204l0.754-4.657l0.925-0.2L102.212,349.863z
		 M100.269,348.482l-0.94-1.46l-0.236,1.702L100.269,348.482"/>
	<polygon points="115.401,343.779 115.127,340.131 113.833,340.229 113.781,339.479 117.236,339.221 117.295,339.965 
		116.002,340.069 116.286,343.709 	"/>
	<path d="M122.507,343.047l-0.937,0.116l-0.5-0.954l-1.748,0.21l-0.235,1.034l-0.948,0.111l1.16-4.562l0.937-0.115L122.507,343.047z
		 M120.696,341.496l-0.807-1.531l-0.389,1.683L120.696,341.496"/>
	<path d="M122.619,338.576l0.866-0.164l0.473,2.329c0.076,0.379,0.137,0.61,0.18,0.722c0.064,0.168,0.19,0.287,0.347,0.369
		c0.16,0.089,0.369,0.102,0.604,0.05c0.245-0.05,0.421-0.144,0.52-0.271c0.104-0.118,0.153-0.269,0.147-0.421
		c-0.005-0.145-0.04-0.393-0.104-0.729l-0.487-2.396l0.866-0.166l0.463,2.26c0.104,0.519,0.151,0.89,0.147,1.117
		c0,0.222-0.046,0.421-0.147,0.589c-0.091,0.169-0.238,0.328-0.435,0.463c-0.186,0.117-0.458,0.227-0.79,0.283
		c-0.412,0.088-0.729,0.112-0.958,0.053c-0.231-0.062-0.424-0.139-0.578-0.269c-0.153-0.13-0.271-0.28-0.337-0.436
		c-0.111-0.244-0.215-0.594-0.313-1.084L122.619,338.576"/>
	<polygon fill="#FFFFFF" points="56.364,335.336 56.364,333.15 53.812,333.15 53.812,334.314 	"/>
	<path fill="#FFFFFF" d="M79.023,342.334c-0.582-0.662-0.217-1.316-0.657-1.459c-0.438-0.155-1.31,0.512-1.31,0.512
		S79.606,342.986,79.023,342.334"/>
	<polygon fill="#FFFFFF" points="128.558,334.314 128.558,333.15 126.006,333.15 126.006,335.336 	"/>
	<path fill="#FFFFFF" d="M105.321,341.387c0,0-0.882-0.667-1.314-0.512c-0.437,0.143-0.071,0.797-0.654,1.459
		C102.768,342.986,105.321,341.387,105.321,341.387"/>
</g>
<g>
	<g>
		<path d="M506.481,289.528c0,0.746,0.46,0.788,1.179,0.788c0.498,0,1.122-0.042,1.672-0.042v0.88
			c-1.808,0.166-5.243,1.049-6.041,1.299l-0.211-0.121v-3.409c-2.52,2.058-4.446,3.53-7.434,3.53c-2.27,0-4.614-1.472-4.614-4.994
			v-10.754c0-1.089-0.173-2.137-2.521-2.346v-0.797c1.508-0.032,4.866-0.293,5.412-0.293c0.466,0,0.466,0.293,0.466,1.221v10.822
			c0,1.263,0,4.87,3.657,4.87c1.419,0,3.307-1.077,5.079-2.559v-11.285c0-0.837-2.021-1.313-3.528-1.718v-0.759
			c3.773-0.261,6.129-0.592,6.55-0.592c0.335,0,0.335,0.293,0.335,0.75V289.528"/>
		<g>
			<path d="M205.861,284.899h0.965c0.713,3.143,3.063,6.216,6.548,6.216c3.232,0,5.752-2.28,5.752-5.587
				c0-7.797-12.421-5.503-12.421-15.409c0-5.416,3.855-8.239,8.979-8.239c1.724,0,3.442,0.391,5.118,0.629l0.675,5.378h-0.968
				c-0.456-2.924-2.394-4.657-5.411-4.657c-3.196,0-5.036,2.311-5.036,5.378c0,7.807,12.924,5.67,12.924,15.33
				c0,5.445-4.907,8.515-9.864,8.515c-2.18,0-4.454-0.502-6.418-1.43L205.861,284.899"/>
			<path d="M226.262,290.73h0.801c1.178,0,2.017,0,2.017-1.375v-11.387c0-1.84-0.634-2.102-2.19-2.945v-0.665
				c1.98-0.593,4.332-1.379,4.496-1.52c0.292-0.157,0.544-0.208,0.758-0.208c0.21,0,0.294,0.255,0.294,0.585v16.14
				c0,1.375,0.917,1.375,2.1,1.375h0.708v1.095c-1.425,0-2.893-0.08-4.408-0.08c-1.508,0-3.026,0.046-4.577,0.08v-1.095H226.262z
				 M230.761,266.17c-1.095,0-2.063-1.011-2.063-2.096c0-1.043,1.006-2.022,2.063-2.022c1.085,0,2.053,0.89,2.053,2.022
				C232.814,265.201,231.893,266.17,230.761,266.17"/>
			<path d="M256.533,275.748l-4.154-0.168c0.717,0.875,1.097,2.058,1.097,3.19c0,3.065-2.562,6.465-7.768,6.465
				c-0.637,0-1.467-0.088-2.315-0.247c-0.796,0.588-1.252,1.128-1.252,2.139c0,0.627,0.167,1.917,2.93,1.917
				c2.062,0,4.12,0.062,5.793,0.062c3.62,0,5.751,1.077,5.751,4.239c0,1.629-2.178,8.057-11.123,8.057
				c-5.327,0-7.927-2.441-7.927-4.708c0-2.684,2.346-4.329,4.9-4.831v-0.071c-1.761-0.515-3.689-1.728-3.689-3.67
				c0-0.447,0-0.917,0.168-1.336c1.18-0.709,2.898-1.551,3.489-2.101c-2.356-1.215-3.955-2.803-3.955-5.58
				c0-3.655,2.687-6.474,7.861-6.474c1.248,0,2.684,0.298,3.689,0.585c1.174,0.346,2.349,0.723,4.071,0.723
				c0.759,0,1.341-0.047,2.432-0.2v2.009H256.533z M247.588,291.825c-2.719,0-6.967,0-6.967,3.944c0,2.902,2.61,4.29,5.547,4.29
				c2.558,0,7.346-1.1,7.346-4.838C253.514,292.156,249.815,291.825,247.588,291.825 M245.792,273.739
				c-2.562,0-3.689,2.552-3.689,4.769c0,2.436,1.038,5.627,3.93,5.627c2.864,0,4.081-2.337,4.081-4.919
				C250.114,276.67,248.727,273.739,245.792,273.739"/>
			<path d="M261.487,277.969c0-1.84-0.632-2.102-2.185-2.945v-0.665c1.98-0.592,4.29-1.379,4.506-1.52
				c0.292-0.157,0.539-0.208,0.753-0.208c0.204,0,0.28,0.255,0.28,0.585v2.573c2.319-1.646,4.247-3.158,7.276-3.158
				c2.216,0,3.86,1.047,4.446,3.236c2.27-1.508,4.198-3.236,7.216-3.236c3.66,0,5.002,2.869,5.002,5.924v10.8
				c0,1.375,0.92,1.375,2.095,1.375h0.634v1.095c-1.342,0-2.814-0.08-4.322-0.08c-1.519,0-3.029,0.046-4.537,0.08v-1.095h0.755
				c1.173,0,2.016,0,2.016-1.375v-9.292c0-2.637-0.545-5.156-3.657-5.156c-1.639,0-3.982,1.341-4.946,2.021v12.427
				c0,1.375,0.964,1.375,2.134,1.375h0.76v1.095c-1.478,0-2.986-0.08-4.497-0.08c-1.508,0-3.023,0.046-4.535,0.08v-1.095h0.764
				c1.174,0,2.013,0,2.013-1.375v-9.292c0-2.637-0.544-5.156-3.653-5.156c-1.64,0-3.986,1.341-4.964,2.021v12.427
				c0,1.375,0.927,1.375,2.109,1.375h0.759v1.095c-1.476,0-2.944-0.08-4.453-0.08c-1.509,0-3.027,0.046-4.661,0.08v-1.095h0.878
				c1.18,0,2.013,0,2.013-1.375L261.487,277.969"/>
			<path d="M312.042,290.182c-1.172,1.095-2.468,2.272-4.149,2.272c-1.729,0-2.526-1.589-2.614-3.098
				c-1.97,1.799-3.856,3.098-6.465,3.098c-2.681,0-4.525-1.849-4.525-4.071c0.162-3.368,1.885-3.986,10.953-7.094v-2.78
				c0-2.344-1.387-3.601-4.079-3.601c-1.844,0-3.103,1.053-3.187,2.94c0,1.167-1.331,1.76-2.356,1.76c-0.624,0-0.75-0.55-0.75-0.839
				c0-2.222,1.89-3.269,4.829-4.788c1.463-0.765,2.181-1.35,3.778-1.35c1.89,0,5.12,1.229,5.12,3.534v11.626
				c0,1.738,0.587,2.391,1.518,2.391c0.544,0,1.174-0.247,1.546-0.719L312.042,290.182z M305.241,282.51
				c-2.142,0.839-7.601,1.797-7.601,4.95c0,1.645,1.343,3.013,2.981,3.013c1.975,0,3.232-1.209,4.619-2.431v-5.532"/>
			<path d="M352.103,268.019h-1.137c-0.126-2.268,0-3.777-3.357-3.777h-6.388v23.46c0,2.944,1.599,3.003,3.821,3.028v1.095
				c-2.017,0-3.821-0.08-5.669-0.08c-2.017,0-3.987,0.046-6.092,0.08v-1.095c2.232-0.024,3.829-0.084,3.829-3.028v-23.46h-5.505
				c-3.777,0-3.95,1.053-4.659,3.777h-1.089l0.455-6.68h0.849c0.456,1.132,1.583,1.17,2.646,1.17h19.05
				c1.521,0,2.57-0.367,2.739-1.17h0.884L352.103,268.019"/>
			<path d="M357.054,265.961c0-2.729-0.637-2.809-2.226-3.28v-0.666c1.675-0.545,3.446-1.304,4.321-1.816
				c0.461-0.238,0.801-0.448,0.923-0.448c0.252,0,0.335,0.252,0.335,0.574v16.012c0.377-0.339,3.07-3.707,6.47-3.707
				c3.656,0,5.623,2.702,5.623,6.348v10.376c0,1.375,0.931,1.375,2.1,1.375h0.759v1.095c-1.472,0-2.944-0.08-4.538-0.08
				c-1.504,0-3.018,0.046-4.532,0.08v-1.095h0.754c1.97,0,2.093-0.457,2.093-4.573v-4.743c0-3.078-0.286-6.256-4.114-6.256
				c-1.97,0-3.647,1.459-4.616,2.349v11.848c0,1.375,0.927,1.375,2.105,1.375h0.754v1.095c-1.471,0-2.942-0.08-4.452-0.08
				c-1.509,0-3.027,0.046-4.526,0.08v-1.095h0.752c1.165,0,2.014,0,2.014-1.375v-23.393"/>
			<path d="M381.274,280.236c-0.075,0.378-0.075,1.002,0,2.433c0.261,3.995,2.822,7.266,6.175,7.266
				c2.311,0,4.119-1.264,5.674-2.809l0.577,0.577c-1.929,2.571-4.322,4.751-7.769,4.751c-6.67,0-8.016-6.469-8.016-9.147
				c0-8.235,5.542-10.676,8.481-10.676c3.401,0,7.062,2.151,7.094,6.586c0,0.274,0,0.517-0.032,0.768l-0.382,0.251H381.274
				L381.274,280.236z M388.706,278.885c1.054,0,1.179-0.549,1.179-1.038c0-2.138-1.298-3.867-3.65-3.867
				c-2.558,0-4.327,1.886-4.832,4.904L388.706,278.885"/>
			<path d="M402.056,286.664c0,2.772,1.519,3.518,2.646,3.518c1.133,0,1.977-0.379,2.938-1.212l0.63,0.626
				c-1.463,1.52-3.314,2.858-5.575,2.858c-2.687,0-3.985-1.43-3.985-3.898v-13.019h-2.777v-0.674
				c2.185-1.681,3.489-2.47,5.623-5.884h0.502v4.291h6.261v2.268h-6.261L402.056,286.664"/>
			<path d="M428.633,290.182c-1.173,1.095-2.478,2.272-4.154,2.272c-1.725,0-2.524-1.589-2.6-3.098
				c-1.975,1.799-3.871,3.098-6.469,3.098c-2.679,0-4.537-1.849-4.537-4.071c0.172-3.368,1.896-3.986,10.959-7.094v-2.78
				c0-2.344-1.389-3.601-4.069-3.601c-1.845,0-3.11,1.053-3.195,2.94c0,1.167-1.339,1.76-2.349,1.76
				c-0.625,0-0.749-0.55-0.749-0.839c0-2.222,1.888-3.269,4.818-4.788c1.475-0.765,2.191-1.35,3.783-1.35
				c1.882,0,5.123,1.229,5.123,3.534v11.626c0,1.738,0.588,2.391,1.52,2.391c0.54,0,1.163-0.247,1.547-0.719L428.633,290.182z
				 M421.832,282.51c-2.138,0.839-7.6,1.797-7.6,4.95c0,1.645,1.35,3.013,2.988,3.013c1.971,0,3.223-1.209,4.61-2.431
				L421.832,282.51"/>
			<path d="M468.693,268.019h-1.134c-0.124-2.268,0-3.777-3.37-3.777h-6.372v23.46c0,2.944,1.593,3.003,3.819,3.028v1.095
				c-2.021,0-3.819-0.08-5.674-0.08c-2.008,0-3.988,0.046-6.083,0.08v-1.095c2.229-0.024,3.82-0.084,3.82-3.028v-23.46h-5.5
				c-3.769,0-3.945,1.053-4.653,3.777h-1.101l0.472-6.68h0.833c0.471,1.132,1.593,1.17,2.646,1.17h19.06
				c1.513,0,2.562-0.367,2.729-1.17h0.885L468.693,268.019"/>
			<path d="M485.652,290.182c-1.177,1.095-2.474,2.272-4.154,2.272c-1.73,0-2.526-1.589-2.611-3.098
				c-1.964,1.799-3.851,3.098-6.463,3.098c-2.683,0-4.525-1.849-4.525-4.071c0.158-3.368,1.891-3.986,10.953-7.094v-2.78
				c0-2.344-1.389-3.601-4.07-3.601c-1.847,0-3.102,1.053-3.187,2.94c0,1.167-1.351,1.76-2.354,1.76c-0.634,0-0.76-0.55-0.76-0.839
				c0-2.222,1.896-3.269,4.828-4.788c1.473-0.765,2.187-1.35,3.783-1.35c1.88,0,5.114,1.229,5.114,3.534v11.626
				c0,1.738,0.586,2.391,1.517,2.391c0.547,0,1.177-0.247,1.555-0.719L485.652,290.182z M478.852,282.51
				c-2.139,0.839-7.601,1.797-7.601,4.95c0,1.645,1.346,3.013,2.985,3.013c1.974,0,3.227-1.209,4.614-2.431L478.852,282.51"/>
			<path d="M527.05,266.646c0-2.954-1.594-2.995-3.811-3.032v-1.104c1.965,0.055,3.897,0.093,5.796,0.093
				c1.928,0,3.854-0.038,5.952-0.093v1.104c-2.22,0.037-3.812,0.079-3.812,3.032v21.057c0,2.944,1.593,3.003,3.812,3.028v1.095
				c-2.015,0-3.812-0.08-5.665-0.08c-2.021,0-3.997,0.046-6.083,0.08v-1.095c2.217-0.024,3.811-0.084,3.811-3.028V266.646"/>
			<path d="M539.979,278.225c0-1.556-0.466-1.976-2.428-2.775v-0.802c1.805-0.582,3.518-1.118,5.529-2.017
				c0.136,0,0.265,0.098,0.265,0.428v2.729c2.382-1.723,4.455-3.158,7.264-3.158c3.565,0,4.822,2.605,4.822,5.877v10.847
				c0,1.375,0.923,1.375,2.107,1.375h0.753v1.095c-1.472,0-2.953-0.08-4.452-0.08c-1.51,0-3.026,0.046-4.54,0.08v-1.095h0.768
				c1.165,0,2.009,0,2.009-1.375v-10.888c0-2.389-1.467-3.56-3.871-3.56c-1.332,0-3.476,1.09-4.858,2.021v12.427
				c0,1.375,0.931,1.375,2.094,1.375h0.754v1.095c-1.464,0-2.935-0.08-4.451-0.08c-1.513,0-3.021,0.046-4.533,0.08v-1.095h0.758
				c1.168,0,2.015,0,2.015-1.375v-11.129"/>
			<path d="M566.351,286.664c0,2.772,1.511,3.518,2.638,3.518c1.136,0,1.981-0.379,2.943-1.212l0.633,0.626
				c-1.472,1.52-3.312,2.858-5.58,2.858c-2.691,0-3.994-1.43-3.994-3.898v-13.019h-2.78v-0.674c2.191-1.681,3.495-2.47,5.646-5.884
				h0.496v4.291h6.258v2.268h-6.258L566.351,286.664"/>
			<path d="M578.189,280.236c-0.083,0.378-0.083,1.002,0,2.433c0.253,3.995,2.816,7.266,6.167,7.266
				c2.315,0,4.124-1.264,5.675-2.809l0.586,0.577c-1.928,2.571-4.316,4.751-7.764,4.751c-6.676,0-8.025-6.469-8.025-9.147
				c0-8.235,5.541-10.676,8.484-10.676c3.401,0,7.053,2.151,7.1,6.586c0,0.274,0,0.517-0.047,0.768l-0.379,0.251H578.189
				L578.189,280.236z M585.614,278.885c1.059,0,1.178-0.549,1.178-1.038c0-2.138-1.297-3.867-3.66-3.867
				c-2.558,0-4.312,1.886-4.819,4.904L585.614,278.885"/>
			<path d="M593.049,290.73h1.137c1.183,0,2.012,0,2.012-1.375v-11.807c0-1.3-1.556-1.55-2.181-1.885v-0.639
				c3.07-1.285,4.742-2.393,5.123-2.393c0.247,0,0.374,0.14,0.374,0.551v3.785h0.084c1.062-1.634,2.82-4.336,5.373-4.336
				c1.054,0,2.405,0.718,2.405,2.231c0,1.136-0.796,2.136-1.983,2.136c-1.297,0-1.297-1-2.77-1c-0.71,0-3.055,0.969-3.055,3.493
				v9.864c0,1.375,0.83,1.375,2.003,1.375h2.356v1.095c-2.319-0.034-4.081-0.08-5.886-0.08c-1.711,0-3.476,0.046-4.994,0.08
				L593.049,290.73"/>
			<path d="M612.277,278.225c0-1.556-0.458-1.976-2.435-2.775v-0.802c1.803-0.582,3.524-1.118,5.538-2.017
				c0.125,0,0.252,0.098,0.252,0.428v2.729c2.397-1.723,4.457-3.158,7.28-3.158c3.558,0,4.819,2.605,4.819,5.877v10.847
				c0,1.375,0.923,1.375,2.106,1.375h0.737v1.095c-1.46,0-2.933-0.08-4.443-0.08c-1.507,0-3.018,0.046-4.535,0.08v-1.095h0.765
				c1.174,0,2.018,0,2.018-1.375v-10.888c0-2.389-1.467-3.56-3.871-3.56c-1.341,0-3.475,1.09-4.876,2.021v12.427
				c0,1.375,0.934,1.375,2.11,1.375h0.755v1.095c-1.464,0-2.946-0.08-4.465-0.08c-1.509,0-3.008,0.046-4.524,0.08v-1.095h0.752
				c1.191,0,2.017,0,2.017-1.375V278.225"/>
			<path d="M651.243,290.182c-1.186,1.095-2.47,2.272-4.152,2.272c-1.729,0-2.523-1.589-2.607-3.098
				c-1.972,1.799-3.861,3.098-6.459,3.098c-2.693,0-4.539-1.849-4.539-4.071c0.168-3.368,1.892-3.986,10.957-7.094v-2.78
				c0-2.344-1.383-3.601-4.071-3.601c-1.844,0-3.111,1.053-3.194,2.94c0,1.167-1.344,1.76-2.349,1.76
				c-0.633,0-0.755-0.55-0.755-0.839c0-2.222,1.896-3.269,4.826-4.788c1.472-0.765,2.188-1.35,3.78-1.35
				c1.888,0,5.125,1.229,5.125,3.534v11.626c0,1.738,0.586,2.391,1.508,2.391c0.546,0,1.185-0.247,1.558-0.719L651.243,290.182z
				 M644.441,282.51c-2.143,0.839-7.602,1.797-7.602,4.95c0,1.645,1.352,3.013,2.989,3.013c1.975,0,3.229-1.209,4.611-2.431
				L644.441,282.51"/>
			<path d="M659.639,286.664c0,2.772,1.514,3.518,2.646,3.518c1.135,0,1.98-0.379,2.938-1.212l0.646,0.626
				c-1.491,1.52-3.326,2.858-5.59,2.858c-2.691,0-3.995-1.43-3.995-3.898v-13.019h-2.756v-0.674c2.158-1.681,3.464-2.47,5.604-5.884
				h0.508v4.291h6.266v2.268h-6.266V286.664"/>
			<path d="M668.035,290.73h0.793c1.184,0,2.022,0,2.022-1.375v-11.387c0-1.84-0.626-2.102-2.186-2.945v-0.665
				c1.979-0.593,4.336-1.379,4.498-1.52c0.288-0.157,0.537-0.208,0.75-0.208c0.205,0,0.298,0.255,0.298,0.585v16.14
				c0,1.375,0.914,1.375,2.099,1.375h0.719v1.095c-1.428,0-2.909-0.08-4.418-0.08c-1.499,0-3.021,0.046-4.575,0.08V290.73z
				 M672.539,266.17c-1.098,0-2.052-1.011-2.052-2.096c0-1.043,0.996-2.022,2.052-2.022c1.086,0,2.055,0.89,2.055,2.022
				C674.594,265.201,673.662,266.17,672.539,266.17"/>
			<path d="M689.736,272.631c5.846,0,10.21,3.866,10.21,9.823c0,5.421-4.28,10-9.656,10c-5.579,0-10.152-3.871-10.152-9.818
				C680.138,277.218,684.121,272.631,689.736,272.631 M690.25,291.368c4.201,0,5.835-4.872,5.835-8.481
				c0-3.452-1.849-9.147-6.288-9.147c-4.164,0-5.806,4.859-5.806,8.476C683.991,285.654,685.838,291.368,690.25,291.368"/>
			<path d="M705.625,278.225c0-1.556-0.464-1.976-2.432-2.775v-0.802c1.799-0.582,3.512-1.118,5.532-2.017
				c0.118,0,0.257,0.098,0.257,0.428v2.729c2.384-1.723,4.438-3.158,7.256-3.158c3.562,0,4.834,2.605,4.834,5.877v10.847
				c0,1.375,0.918,1.375,2.088,1.375h0.76v1.095c-1.473,0-2.925-0.08-4.441-0.08c-1.513,0-3.03,0.046-4.538,0.08v-1.095h0.76
				c1.168,0,2.016,0,2.016-1.375v-10.888c0-2.389-1.477-3.56-3.862-3.56c-1.344,0-3.494,1.09-4.869,2.021v12.427
				c0,1.375,0.916,1.375,2.097,1.375h0.749v1.095c-1.471,0-2.939-0.08-4.443-0.08c-1.513,0-3.021,0.046-4.537,0.08v-1.095h0.75
				c1.179,0,2.027,0,2.027-1.375v-11.129"/>
			<path d="M744.582,290.182c-1.186,1.095-2.48,2.272-4.156,2.272c-1.724,0-2.52-1.589-2.606-3.098
				c-1.978,1.799-3.855,3.098-6.471,3.098c-2.677,0-4.521-1.849-4.521-4.071c0.158-3.368,1.881-3.986,10.948-7.094v-2.78
				c0-2.344-1.376-3.601-4.066-3.601c-1.851,0-3.107,1.053-3.194,2.94c0,1.167-1.352,1.76-2.347,1.76
				c-0.639,0-0.765-0.55-0.765-0.839c0-2.222,1.893-3.269,4.836-4.788c1.47-0.765,2.18-1.35,3.771-1.35
				c1.896,0,5.123,1.229,5.123,3.534v11.626c0,1.738,0.583,2.391,1.521,2.391c0.535,0,1.164-0.247,1.546-0.719L744.582,290.182z
				 M737.774,282.51c-2.136,0.839-7.596,1.797-7.596,4.95c0,1.645,1.347,3.013,2.978,3.013c1.969,0,3.242-1.209,4.618-2.431V282.51"
				/>
			<path d="M747.395,290.73h0.793c1.18,0,2.017,0,2.017-1.375V265.96c0-2.729-0.626-2.809-2.223-3.28v-0.666
				c1.689-0.545,3.438-1.304,4.328-1.816c0.446-0.238,0.798-0.448,0.916-0.448c0.253,0,0.337,0.252,0.337,0.574v29.03
				c0,1.375,0.931,1.375,2.096,1.375h0.717v1.095c-1.425,0-2.896-0.08-4.396-0.08c-1.519,0-3.029,0.046-4.584,0.08V290.73"/>
		</g>
	</g>
	<g>
		<path d="M215.565,327.551v12.984c0,2.809,1.98,2.975,3.665,2.975h0.891v1.564l-7.596-0.205l-7.095,0.205v-1.564h0.659
			c1.687,0,3.467-0.26,3.467-2.975v-27.32c0-2.713-1.78-2.975-3.467-2.975h-0.659v-1.562l7.095,0.203l7.596-0.203v1.562h-0.891
			c-1.685,0-3.665,0.163-3.665,2.975v11.42H232.6v-11.42c0-2.812-1.96-2.975-3.642-2.975h-0.912v-1.562l7.61,0.203l7.092-0.203
			v1.562h-0.655c-1.685,0-3.479,0.262-3.479,2.975v27.32c0,2.715,1.794,2.975,3.479,2.975h0.655v1.564l-7.092-0.205l-7.61,0.205
			v-1.564h0.912c1.682,0,3.642-0.166,3.642-2.975v-12.984H215.565"/>
		<path d="M257.286,320.881c-7.294,0-12.457,5.424-12.457,12.457c0,7.197,5.106,12.519,12.457,12.519
			c7.042,0,12.574-5.736,12.574-12.828C269.86,325.723,264.852,320.881,257.286,320.881 M257.604,343.975
			c-5.064,0-6.406-6.096-6.406-10.483c0-4.256,0.464-10.81,5.984-10.73c5.059,0.066,6.313,7.775,6.313,11.517
			C263.496,338.963,262.45,343.975,257.604,343.975"/>
		<path d="M272.121,345.074v-1.562h0.357c1.513,0,2.719,0,2.719-1.569V327.19c0-0.837-0.109-1.148-1.249-1.468
			c-0.632-0.149-1.207-0.354-1.828-0.528v-1.242l4.736-1.504c1.206-0.418,2.455-1.103,3.597-1.566l0.579,0.465v3.332
			c2.289-1.555,4.952-3.797,8.135-3.797c3.752,0,6.468,1.822,6.468,6.723v14.451c0,1.457,1.302,1.457,2.556,1.457h0.627v1.562
			l-5.899-0.205l-6.204,0.205v-1.562h0.518c1.044,0,2.55,0,2.55-1.358v-13.045c0-3.168-1.605-4.367-3.954-4.367
			c-1.72,0-3.644,1.033-4.797,1.76v15.762c0,1.25,1.208,1.25,2.509,1.25h0.787v1.562l-5.961-0.205L272.121,345.074"/>
		<path d="M313.541,320.881c-7.301,0-12.463,5.424-12.463,12.457c0,7.197,5.106,12.519,12.463,12.519
			c7.027,0,12.559-5.736,12.559-12.828C326.1,325.723,321.092,320.881,313.541,320.881 M313.845,343.975
			c-5.053,0-6.411-6.096-6.411-10.483c0-4.211,0.466-10.73,5.998-10.73c5.064,0,6.312,7.775,6.312,11.517
			C319.744,338.963,318.702,343.975,313.845,343.975"/>
		<path d="M337.284,328.596v13.72c0,1.194,1.404,1.194,3.855,1.194h0.781v1.564l-7.356-0.205l-6.519,0.205v-1.564h0.518
			c1.783,0,2.871-0.213,2.871-1.356v-14.179c0-1.725-0.303-2.252-1.611-2.455l-1.668-0.325v-1.242
			c2.758-0.517,5.576-1.717,8.552-3.07l0.576,0.314v3.592h0.099c0.944-1.51,3.29-3.906,5.99-3.906c1.774,0,3.341,0.828,3.341,3.07
			c0,1.988-1.305,3.076-2.911,3.076c-2.033,0-2.033-1.976-3.65-1.976C338.897,325.053,337.284,326.041,337.284,328.596"/>
		<path d="M384.013,316.131l-1.458,0.26c-0.371-3.377-2.553-6.619-6.151-6.619c-4.125,0-6.418,2.455-6.418,6.571
			c0,8.655,15.647,6.048,15.647,18.561c0,7.192-5.945,10.953-12.616,10.953c-2.925,0-5.739-1.041-8.29-2.347l-0.895-7.938
			l1.462-0.301c0.622,4.438,3.125,8.293,8.077,8.293c3.554,0,6.425-2.244,6.425-5.945c0-9.234-15.329-6.361-15.329-18.93
			c0-6.779,4.791-10.798,11.512-10.798c1.471,0,5.895,0.579,7.508,0.787C383.49,311.129,383.699,313.635,384.013,316.131"/>
		<path d="M401.352,320.881c-7.3,0-12.464,5.424-12.464,12.457c0,7.197,5.109,12.519,12.464,12.519
			c7.032,0,12.565-5.736,12.565-12.828C413.917,325.723,408.906,320.881,401.352,320.881 M401.651,343.975
			c-5.046,0-6.403-6.096-6.403-10.483c0-4.211,0.463-10.73,5.998-10.73c5.051,0,6.308,7.775,6.308,11.517
			C407.554,338.963,406.511,343.975,401.651,343.975"/>
		<path d="M436.873,338.5l0.944,1.043c-2.512,3.646-5.066,6.312-9.858,6.312c-6.977,0-10.949-4.74-10.949-11.623
			c0-7.304,5.886-13.353,13.185-13.353c3.502,0,6.84,0.826,6.84,3.906c0,1.565-1.252,2.764-2.812,2.764
			c-2.771,0-2.312-4.381-6.164-4.381c-3.688,0-5.518,3.037-5.518,7.365c0,5.004,2.243,11.154,8.027,11.154
			C433.381,341.689,434.735,340.59,436.873,338.5"/>
		<path d="M447.359,321.346v20.916c0,1.248,1.212,1.248,2.514,1.248h0.788v1.564l-5.963-0.205l-6.238,0.205v-1.564h0.354
			c1.51,0,2.719,0,2.719-1.567V327.19c0-0.837-0.112-1.148-1.251-1.466c-0.633-0.151-1.2-0.356-1.821-0.53v-1.242l4.729-1.504
			c1.213-0.418,2.464-1.103,3.6-1.566L447.359,321.346"/>
		<path d="M447.624,310.403c0,1.769-1.4,3.169-3.175,3.169c-1.786,0-3.175-1.4-3.175-3.169c0-1.725,1.389-3.188,3.175-3.188
			C446.224,307.217,447.624,308.68,447.624,310.403"/>
		<path d="M472.199,338.348c-1.661,1.879-3.701,2.814-6.212,2.814c-5.627,0-8.067-5.271-8.067-10.584h14.068l0.624-0.574
			c0.102-5.154-2.808-9.123-8.193-9.123c-7.077,0-11.512,6.402-11.512,12.979c0,5.95,3.541,11.996,10.112,11.996
			c4.385,0,7.925-2.865,10.009-6.517L472.199,338.348z M463.549,322.76c2.337,0,3.641,2.347,3.641,4.314
			c0,1.885-0.414,1.942-3.228,1.942h-5.95C458.591,325.773,460.36,322.76,463.549,322.76"/>
		<path d="M489.475,321.66v2.922h-6.21v14.291c0,2.18,1.306,2.816,2.758,2.816c1.307,0,2.087-0.322,3.088-0.938l0.677,0.881
			c-1.938,2.5-4.122,4.224-7.103,4.224c-3.945,0-5.252-2.513-5.252-5.367v-15.906H474.3v-1.252c2.812-1.504,5.999-4.484,8.35-7.457
			l0.615,0.313v5.474H489.475"/>
		<path d="M500.06,325.885l4.582,11.894h0.12l4.116-10.535c0.413-1.035,0.68-1.984,0.68-2.822c0-1.027-1.151-1.199-2.457-1.199
			h-0.674v-1.561l4.851,0.205l3.741-0.205v1.561h-0.883c-0.938,0-1.504,0.939-3.014,4.591l-10.636,25.704
			c-0.786,1.88-2.086,3.451-3.959,3.451c-1.732,0-2.98-1.252-2.98-3.028c0-1.414,1.152-2.81,2.809-2.81
			c1.098,0,1.826,0.256,2.609,0.785l2.655-6.371l-7.854-19.502c-0.844-2.033-1.36-2.82-2.562-2.82h-0.784v-1.561l6.042,0.205
			l5.796-0.205v1.561h-0.468c-0.779,0-2.248,0-2.248,0.787C499.542,324.475,499.803,325.193,500.06,325.885"/>
		<path d="M541.963,320.881c-7.295,0-12.461,5.424-12.461,12.457c0,7.197,5.118,12.519,12.461,12.519
			c7.041,0,12.567-5.736,12.567-12.828C554.53,325.723,549.524,320.881,541.963,320.881 M542.28,343.975
			c-5.061,0-6.417-6.096-6.417-10.483c0-4.211,0.47-10.73,6.001-10.73c5.052,0,6.305,7.775,6.305,11.517
			C548.169,338.963,547.126,343.975,542.28,343.975"/>
		<path d="M566.758,324.582v16.893c-0.052,1.822,0.932,2.035,3.748,2.035h0.987v1.564l-7.773-0.205l-6.512,0.205v-1.564h1.203
			c1.614,0,2.499-0.057,2.499-1.979v-16.949h-3.702v-0.928c1.258-0.58,2.458-1.312,3.702-2.09v-3.652c0-3.65,1.567-6.625,4.12-9.129
			c2.453-2.401,4.171-3.554,6.105-3.554c2.082,0,3.59,0.841,3.59,3.298c0,1.508-0.94,2.865-2.55,2.865
			c-1.565,0-1.565-2.609-3.496-2.609c-1.665,0-1.923,1.719-1.923,3.546v9.331h5.832v2.922H566.758"/>
		<path d="M595.931,308.68l20.89,26.113l0.085-0.096v-19.556c0-4.274-2.686-4.901-4.078-4.901h-1.03v-1.562
			c2.205,0,4.354,0.203,6.56,0.203c1.918,0,3.863-0.203,5.78-0.203v1.562h-0.703c-1.979,0-4.184,0.428-4.184,6.628v23.722
			c0,1.83,0.056,3.652,0.275,5.266h-1.777l-24.161-29.936v21.482c0,4.539,0.793,6.106,4.409,6.106h0.787v1.564
			c-2.021,0-4.03-0.205-6.049-0.205c-2.118,0-4.271,0.205-6.385,0.205v-1.564h0.661c3.237,0,4.228-2.457,4.228-6.627v-21.947
			c0-2.927-2.162-4.694-4.285-4.694h-0.604v-1.562c1.775,0,3.619,0.203,5.398,0.203C593.157,308.883,594.519,308.68,595.931,308.68"
			/>
		<path d="M628.219,339.748v-14.119c0-0.779-0.15-1.104-1.093-1.359l-2.19-0.614v-1.265c3.021-0.155,6.358-0.684,8.858-1.51
			l0.522,0.314l-0.261,4.688v11.519c0,3.086,1.473,4.287,3.871,4.287c1.92,0,3.688-1.201,4.898-2.195v-13.351
			c0-1.092-0.221-1.295-1.261-1.67l-2.599-0.819v-1.265c2.648-0.155,6.985-0.524,9.435-1.51l0.51,0.314
			c-0.193,1.45-0.253,3.073-0.253,4.688v14.906c0,1.414,0.314,1.879,1.411,1.879h1.569v1.252c-2.729,0.471-5.743,0.893-8.291,1.934
			l-0.521-0.422v-3.69c-2.257,1.864-5.221,4.112-8.243,4.112C629.94,345.855,628.219,343.297,628.219,339.748"/>
		<path d="M662.186,328.596v13.72c0,1.194,1.405,1.194,3.856,1.194h0.784v1.564l-7.355-0.205l-6.526,0.205v-1.564h0.525
			c1.786,0,2.871-0.213,2.871-1.356v-14.179c0-1.725-0.316-2.252-1.607-2.455l-1.673-0.325v-1.242
			c2.756-0.517,5.575-1.717,8.552-3.07l0.573,0.314v3.592h0.099c0.947-1.51,3.287-3.906,5.998-3.906c1.771,0,3.331,0.828,3.331,3.07
			c0,1.988-1.305,3.076-2.9,3.076c-2.048,0-2.048-1.976-3.656-1.976C663.811,325.053,662.186,326.041,662.186,328.596"/>
		<path d="M688.33,327.652l-1.463,0.272c-0.271-2.928-1.361-5.166-4.702-5.166c-1.771,0-3.542,1.092-3.542,3.125
			c0,5.687,10.792,4.383,10.792,12.297c0,5.646-4.527,7.675-8.858,7.675c-2.504,0-4.392-0.728-6.155-1.357l-0.467-5.785l1.454-0.309
			c0.312,2.871,2.04,5.569,5.111,5.569c2.037,0,3.915-1.151,3.915-3.438c0-4.996-10.48-4.176-10.48-12.207
			c0-4.578,3.534-7.447,8.337-7.447c2.347,0,4.181,0.519,6.153,1.25C688.271,324.008,688.161,325.83,688.33,327.652"/>
		<path d="M701.001,321.346v20.916c0,1.248,1.209,1.248,2.521,1.248h0.774v1.564l-5.942-0.205l-6.256,0.205v-1.564h0.354
			c1.519,0,2.718,0,2.718-1.567V327.19c0-0.837-0.114-1.148-1.251-1.466c-0.624-0.151-1.204-0.356-1.821-0.53v-1.242l4.736-1.504
			c1.209-0.418,2.452-1.103,3.598-1.566L701.001,321.346"/>
		<path d="M701.271,310.403c0,1.769-1.406,3.169-3.184,3.169s-3.178-1.4-3.178-3.169c0-1.725,1.4-3.188,3.178-3.188
			C699.864,307.217,701.271,308.68,701.271,310.403"/>
		<path d="M705.714,345.074v-1.562h0.371c1.502,0,2.7,0,2.7-1.569V327.19c0-0.837-0.103-1.148-1.249-1.468
			c-0.619-0.149-1.197-0.354-1.822-0.528v-1.242l4.746-1.504c1.188-0.418,2.44-1.103,3.596-1.566l0.571,0.465v3.332
			c2.297-1.555,4.951-3.797,8.129-3.797c3.756,0,6.484,1.822,6.484,6.723v14.451c0,1.457,1.288,1.457,2.548,1.457h0.63v1.562
			l-5.906-0.205l-6.19,0.205v-1.562h0.513c1.04,0,2.553,0,2.553-1.358v-13.045c0-3.168-1.607-4.367-3.966-4.367
			c-1.71,0-3.654,1.033-4.793,1.76v15.762c0,1.25,1.199,1.25,2.504,1.25h0.782v1.562l-5.95-0.205L705.714,345.074"/>
		<path d="M757.507,322.553h-4.531c-0.781,0-1.731,0-2.346-0.317c-2.036-0.984-3.966-1.354-6.367-1.354
			c-4.79,0-10.005,3.07-10.005,8.344c0,3.388,2.139,5.943,5.101,7.295l-4.526,3.134c0,3.537,1.717,5.217,5.26,5.52v0.104
			c-3.864,1.621-6.154,2.664-6.154,6.108c0,3.857,5.107,5.582,10.012,5.582c5.528,0,13.56-2.819,13.56-10.854
			c0-4.017-3.228-5.623-6.821-5.623c-2.301,0-4.595,0.264-6.895,0.264c-2.036,0-4.112-0.053-3.966-2.717l1.261-1.037
			c1.09,0.314,2.237,0.457,3.373,0.457c4.961,0,9.86-3.223,9.86-8.23c0-1.36-0.202-2.608-0.822-4.069h4.01v-2.604H757.507z
			 M746.776,345.855c2.812,0,6.463,0.358,6.463,3.75c0,3.598-4.854,5.477-8.347,5.477c-3.808,0-6.672-1.145-6.672-4.637
			C738.222,346.475,743.537,345.855,746.776,345.855 M744.572,335.572c-3.274,0-4.481-4.267-4.481-6.873
			c0-2.658,0.736-6.252,4.122-6.252c3.335,0,4.27,4.795,4.27,7.348C748.481,332.406,747.761,335.572,744.572,335.572"/>
		<path d="M758.392,314.459c0-3.1,2.451-5.596,5.546-5.596c3.109,0,5.546,2.496,5.546,5.596c0,3.014-2.437,5.5-5.546,5.5
			C760.843,319.959,758.392,317.473,758.392,314.459 M768.588,314.459c0-2.622-2.03-4.88-4.65-4.88c-2.604,0-4.646,2.269-4.646,4.88
			c0,2.523,2.058,4.783,4.646,4.783C766.541,319.242,768.588,316.982,768.588,314.459 M763.955,317.307h-2.622v-0.213
			c0.687-0.09,0.804-0.076,0.804-0.502v-4.205c0-0.737,0.018-0.719-0.774-0.8v-0.239h2.841c0.973,0,1.866,0.453,1.866,1.479
			c0,0.821-0.545,1.446-1.306,1.688l0.91,1.282c0.43,0.58,0.917,1.146,1.223,1.387v0.123h-1.02c-0.523,0-0.916-1.109-1.939-2.64
			h-0.788v1.925c0,0.426,0.119,0.412,0.807,0.502L763.955,317.307L763.955,317.307z M763.148,314.369h0.715
			c0.743,0,1.079-0.582,1.079-1.471c0-0.94-0.517-1.25-1.112-1.25h-0.682V314.369z"/>
	</g>
</g>
</svg>
